<svg width="0" height="0" class="hidden">
  <symbol xmlns="http://www.w3.org/2000/svg" viewBox="0 0 10 6" id="icon-arrow-down">
    <path stroke="#686868" stroke-width="1.5" fill="none" d="m1 1 4 4 4-4"></path>
  </symbol>
  <symbol xmlns="http://www.w3.org/2000/svg" viewBox="0 0 10 6" id="icon-arrow-up">
    <path stroke="#686868" stroke-width="1.5" fill="none" d="m1 5 4-4 4 4"></path>
  </symbol>
  <symbol xmlns="http://www.w3.org/2000/svg" viewBox="0 0 16 16" id="icon-calendar">
    <path d="M12.667 8.667h-4v4h4v-4ZM11.334 0v1.333H4.667V0h-2v1.333h-1C.75 1.333 0 2.083 0 3v11.333C0 15.25.75 16 1.667 16h12.667C15.25 16 16 15.25 16 14.333V3c0-.917-.75-1.667-1.666-1.667h-1V0h-2Zm3 14.333H1.667V5.5h12.667v8.833Z" fill="#4BB1DA"></path>
  </symbol>
  <symbol xmlns="http://www.w3.org/2000/svg" viewBox="0 0 26 26" id="icon-close-menu">
    <g fill="#151515" fill-rule="evenodd">
      <path d="m2.393.98 22.628 22.628-1.414 1.414L.979 2.395z"></path>
      <path d="M.98 23.607 23.609.979l1.414 1.414L2.395 25.021z"></path>
    </g>
  </symbol>
  <symbol xmlns="http://www.w3.org/2000/svg" viewBox="0 0 32 18" id="icon-menu">
    <g fill="#151515" fill-rule="evenodd">
      <path d="M0 0h32v2H0zM0 8h32v2H0zM0 16h32v2H0z"></path>
    </g>
  </symbol>
  <symbol xmlns="http://www.w3.org/2000/svg" viewBox="0 0 16 16" id="icon-planning">
    <path d="M8 0a8 8 0 1 1 0 16A8 8 0 0 1 8 0Zm0 2.133a5.867 5.867 0 1 0 0 11.734A5.867 5.867 0 0 0 8 2.133ZM8 3.2a4.8 4.8 0 1 1 0 9.6 4.8 4.8 0 0 1 0-9.6Zm-.533 2.667a.533.533 0 0 0-.534.533v2.133c0 .295.24.534.534.534h3.2a.533.533 0 0 0 0-1.067H8V6.4a.533.533 0 0 0-.533-.533Z" fill="#8E4CB6"></path>
  </symbol>
  <symbol xmlns="http://www.w3.org/2000/svg" viewBox="0 0 13 17" id="icon-reminders">
    <path d="M6.408 13.916c-3.313 0-6-1.343-6-3 0-.612.371-1.18 1-1.654V7.916a5 5 0 0 1 3.041-4.6 2 2 0 0 1 3.507-1.664 2 2 0 0 1 .411 1.664 5.002 5.002 0 0 1 3.041 4.6v1.346c.629.474 1 1.042 1 1.654 0 1.657-2.687 3-6 3Zm0 1c.694 0 1.352-.066 1.984-.16.004.054.016.105.016.16a2 2 0 0 1-4 0c0-.055.012-.106.016-.16.633.094 1.29.16 1.984.16Z" fill="#EDD556"></path>
  </symbol>
  <symbol xmlns="http://www.w3.org/2000/svg" viewBox="0 0 14 16" id="icon-todo">
    <path d="M14 3v12a1 1 0 0 1-1 1H1a1 1 0 0 1-1-1V3a1 1 0 0 1 1-1h1V1a1 1 0 1 1 2 0v1h2V1a1 1 0 1 1 2 0v1h2V1a1 1 0 0 1 2 0v1h1a1 1 0 0 1 1 1Zm-2 3H2v1h10V6Zm0 3H2v1h10V9Zm0 3H2v1h10v-1Z" fill="#726CEE"></path>
  </symbol>
</svg>